<?xml version="1.0" encoding="UTF-8"?>
<!DOCTYPE svg PUBLIC "-//W3C//DTD SVG 1.1//EN" "http://www.w3.org/Graphics/SVG/1.1/DTD/svg11.dtd">
<svg width="160mm" height="90mm" viewBox="0 0 16000 9000" version="1.1" xmlns="http://www.w3.org/2000/svg" xmlns:xlink="http://www.w3.org/1999/xlink" stroke-width="28.222" stroke-linejoin="round" xml:space="preserve">
 <path fill="rgb(255,255,255)" stroke="none" d="M 8000,8999 L 0,8999 0,0 15999,0 15999,8999 8000,8999 Z"/>
 <path fill="none" stroke="rgb(179,179,179)" stroke-linejoin="round" d="M 8885,8819 L 2423,8819 2423,1925 15347,1925 15347,8819 8885,8819 Z"/>
 <path fill="none" stroke="rgb(179,179,179)" stroke-linejoin="round" d="M 2423,1924 L 2423,8818"/>
 <path fill="none" stroke="rgb(179,179,179)" stroke-linejoin="round" d="M 4577,1924 L 4577,8818"/>
 <path fill="none" stroke="rgb(179,179,179)" stroke-linejoin="round" d="M 6731,1924 L 6731,8818"/>
 <path fill="none" stroke="rgb(179,179,179)" stroke-linejoin="round" d="M 8884,1924 L 8884,8818"/>
 <path fill="none" stroke="rgb(179,179,179)" stroke-linejoin="round" d="M 11038,1924 L 11038,8818"/>
 <path fill="none" stroke="rgb(179,179,179)" stroke-linejoin="round" d="M 13192,1924 L 13192,8818"/>
 <path fill="none" stroke="rgb(179,179,179)" stroke-linejoin="round" d="M 15347,1924 L 15347,8818"/>
 <path fill="none" stroke="rgb(179,179,179)" stroke-linejoin="round" d="M 2273,1924 L 2423,1924"/>
 <path fill="none" stroke="rgb(179,179,179)" stroke-linejoin="round" d="M 2273,1924 L 2423,1924"/>
 <path fill="none" stroke="rgb(179,179,179)" stroke-linejoin="round" d="M 2273,2785 L 2423,2785"/>
 <path fill="none" stroke="rgb(179,179,179)" stroke-linejoin="round" d="M 2273,2785 L 2423,2785"/>
 <path fill="none" stroke="rgb(179,179,179)" stroke-linejoin="round" d="M 2273,3647 L 2423,3647"/>
 <path fill="none" stroke="rgb(179,179,179)" stroke-linejoin="round" d="M 2273,3647 L 2423,3647"/>
 <path fill="none" stroke="rgb(179,179,179)" stroke-linejoin="round" d="M 2273,4508 L 2423,4508"/>
 <path fill="none" stroke="rgb(179,179,179)" stroke-linejoin="round" d="M 2273,4508 L 2423,4508"/>
 <path fill="none" stroke="rgb(179,179,179)" stroke-linejoin="round" d="M 2273,5370 L 2423,5370"/>
 <path fill="none" stroke="rgb(179,179,179)" stroke-linejoin="round" d="M 2273,5370 L 2423,5370"/>
 <path fill="none" stroke="rgb(179,179,179)" stroke-linejoin="round" d="M 2273,6232 L 2423,6232"/>
 <path fill="none" stroke="rgb(179,179,179)" stroke-linejoin="round" d="M 2273,6232 L 2423,6232"/>
 <path fill="none" stroke="rgb(179,179,179)" stroke-linejoin="round" d="M 2273,7094 L 2423,7094"/>
 <path fill="none" stroke="rgb(179,179,179)" stroke-linejoin="round" d="M 2273,7094 L 2423,7094"/>
 <path fill="none" stroke="rgb(179,179,179)" stroke-linejoin="round" d="M 2273,7956 L 2423,7956"/>
 <path fill="none" stroke="rgb(179,179,179)" stroke-linejoin="round" d="M 2273,7956 L 2423,7956"/>
 <path fill="none" stroke="rgb(179,179,179)" stroke-linejoin="round" d="M 2273,8818 L 2423,8818"/>
 <path fill="none" stroke="rgb(179,179,179)" stroke-linejoin="round" d="M 2273,8818 L 2423,8818"/>
 <path fill="none" stroke="rgb(179,179,179)" stroke-linejoin="round" d="M 2423,8818 L 2423,1924"/>
 <path fill="none" stroke="rgb(179,179,179)" stroke-linejoin="round" d="M 2423,1774 L 2423,1924"/>
 <path fill="none" stroke="rgb(179,179,179)" stroke-linejoin="round" d="M 2423,1774 L 2423,1924"/>
 <path fill="none" stroke="rgb(179,179,179)" stroke-linejoin="round" d="M 4577,1774 L 4577,1924"/>
 <path fill="none" stroke="rgb(179,179,179)" stroke-linejoin="round" d="M 4577,1774 L 4577,1924"/>
 <path fill="none" stroke="rgb(179,179,179)" stroke-linejoin="round" d="M 6731,1774 L 6731,1924"/>
 <path fill="none" stroke="rgb(179,179,179)" stroke-linejoin="round" d="M 6731,1774 L 6731,1924"/>
 <path fill="none" stroke="rgb(179,179,179)" stroke-linejoin="round" d="M 8884,1774 L 8884,1924"/>
 <path fill="none" stroke="rgb(179,179,179)" stroke-linejoin="round" d="M 8884,1774 L 8884,1924"/>
 <path fill="none" stroke="rgb(179,179,179)" stroke-linejoin="round" d="M 11038,1774 L 11038,1924"/>
 <path fill="none" stroke="rgb(179,179,179)" stroke-linejoin="round" d="M 11038,1774 L 11038,1924"/>
 <path fill="none" stroke="rgb(179,179,179)" stroke-linejoin="round" d="M 13192,1774 L 13192,1924"/>
 <path fill="none" stroke="rgb(179,179,179)" stroke-linejoin="round" d="M 13192,1774 L 13192,1924"/>
 <path fill="none" stroke="rgb(179,179,179)" stroke-linejoin="round" d="M 15347,1774 L 15347,1924"/>
 <path fill="none" stroke="rgb(179,179,179)" stroke-linejoin="round" d="M 15347,1774 L 15347,1924"/>
 <path fill="none" stroke="rgb(179,179,179)" stroke-linejoin="round" d="M 2423,1924 L 15347,1924"/>
 <path fill="rgb(255,66,14)" stroke="none" d="M 2423,8171 L 2423,8602 2797,8602 2797,8171 2423,8171 Z"/>
 <path fill="rgb(255,66,14)" stroke="none" d="M 2423,7309 L 2423,7740 3156,7740 3156,7309 2423,7309 Z"/>
 <path fill="rgb(255,66,14)" stroke="none" d="M 2423,6447 L 2423,6878 4202,6878 4202,6447 2423,6447 Z"/>
 <path fill="rgb(255,66,14)" stroke="none" d="M 2423,5585 L 2423,6016 5355,6016 5355,5585 2423,5585 Z"/>
 <path fill="rgb(255,66,14)" stroke="none" d="M 2423,4724 L 2423,5155 8716,5155 8716,4724 2423,4724 Z"/>
 <path fill="rgb(255,66,14)" stroke="none" d="M 2423,3863 L 2423,4294 13515,4294 13515,3863 2423,3863 Z"/>
 <path fill="rgb(255,66,14)" stroke="none" d="M 2423,3001 L 2423,3432 5025,3432 5025,3001 2423,3001 Z"/>
 <path fill="rgb(255,66,14)" stroke="none" d="M 2423,2139 L 2423,2570 9825,2570 9825,2139 2423,2139 Z"/>
 <path fill="none" stroke="rgb(0,0,0)" stroke-linejoin="round" d="M 8182,2354 L 9825,2354 11467,2354"/>
 <path fill="none" stroke="rgb(0,0,0)" stroke-linejoin="round" d="M 8182,2454 L 8182,2254"/>
 <path fill="none" stroke="rgb(0,0,0)" stroke-linejoin="round" d="M 11467,2254 L 11467,2454"/>
 <path fill="none" stroke="rgb(0,0,0)" stroke-linejoin="round" d="M 3725,3216 L 5025,3216 6324,3216"/>
 <path fill="none" stroke="rgb(0,0,0)" stroke-linejoin="round" d="M 3725,3316 L 3725,3116"/>
 <path fill="none" stroke="rgb(0,0,0)" stroke-linejoin="round" d="M 6324,3116 L 6324,3316"/>
 <path fill="none" stroke="rgb(0,0,0)" stroke-linejoin="round" d="M 10924,4078 L 13515,4078 15347,4078"/>
 <path fill="none" stroke="rgb(0,0,0)" stroke-linejoin="round" d="M 10924,4178 L 10924,3978"/>
 <path fill="none" stroke="rgb(0,0,0)" stroke-linejoin="round" d="M 7020,4939 L 8716,4939 10413,4939"/>
 <path fill="none" stroke="rgb(0,0,0)" stroke-linejoin="round" d="M 7020,5039 L 7020,4839"/>
 <path fill="none" stroke="rgb(0,0,0)" stroke-linejoin="round" d="M 10413,4839 L 10413,5039"/>
 <path fill="none" stroke="rgb(0,0,0)" stroke-linejoin="round" d="M 4449,5801 L 5355,5801 6261,5801"/>
 <path fill="none" stroke="rgb(0,0,0)" stroke-linejoin="round" d="M 4449,5901 L 4449,5701"/>
 <path fill="none" stroke="rgb(0,0,0)" stroke-linejoin="round" d="M 6261,5701 L 6261,5901"/>
 <path fill="none" stroke="rgb(0,0,0)" stroke-linejoin="round" d="M 3396,6663 L 4202,6663 5008,6663"/>
 <path fill="none" stroke="rgb(0,0,0)" stroke-linejoin="round" d="M 3396,6763 L 3396,6563"/>
 <path fill="none" stroke="rgb(0,0,0)" stroke-linejoin="round" d="M 5008,6563 L 5008,6763"/>
 <path fill="none" stroke="rgb(0,0,0)" stroke-linejoin="round" d="M 2915,7525 L 3156,7525 3398,7525"/>
 <path fill="none" stroke="rgb(0,0,0)" stroke-linejoin="round" d="M 2915,7625 L 2915,7425"/>
 <path fill="none" stroke="rgb(0,0,0)" stroke-linejoin="round" d="M 3398,7425 L 3398,7625"/>
 <path fill="none" stroke="rgb(0,0,0)" stroke-linejoin="round" d="M 2658,8387 L 2797,8387 2936,8387"/>
 <path fill="none" stroke="rgb(0,0,0)" stroke-linejoin="round" d="M 2658,8487 L 2658,8287"/>
 <path fill="none" stroke="rgb(0,0,0)" stroke-linejoin="round" d="M 2936,8287 L 2936,8487"/>
 <text class="TextShape"><tspan class="TextParagraph" font-family="Liberation Sans, sans-serif" font-size="353px" font-weight="400"><tspan class="TextPosition" x="1300" y="2473"><tspan fill="rgb(0,0,0)" stroke="none">xz -0 </tspan></tspan></tspan></text>
 <text class="TextShape"><tspan class="TextParagraph" font-family="Liberation Sans, sans-serif" font-size="353px" font-weight="400"><tspan class="TextPosition" x="797" y="3335"><tspan fill="rgb(0,0,0)" stroke="none">xz -0 -T0</tspan></tspan></tspan></text>
 <text class="TextShape"><tspan class="TextParagraph" font-family="Liberation Sans, sans-serif" font-size="353px" font-weight="400"><tspan class="TextPosition" x="824" y="4197"><tspan fill="rgb(0,0,0)" stroke="none">zstd -15 </tspan></tspan></tspan></text>
 <text class="TextShape"><tspan class="TextParagraph" font-family="Liberation Sans, sans-serif" font-size="353px" font-weight="400"><tspan class="TextPosition" x="321" y="5059"><tspan fill="rgb(0,0,0)" stroke="none">zstd -15 -T0</tspan></tspan></tspan></text>
 <text class="TextShape"><tspan class="TextParagraph" font-family="Liberation Sans, sans-serif" font-size="353px" font-weight="400"><tspan class="TextPosition" x="1009" y="5921"><tspan fill="rgb(0,0,0)" stroke="none">zstd -9 </tspan></tspan></tspan></text>
 <text class="TextShape"><tspan class="TextParagraph" font-family="Liberation Sans, sans-serif" font-size="353px" font-weight="400"><tspan class="TextPosition" x="506" y="6783"><tspan fill="rgb(0,0,0)" stroke="none">zstd -9 -T0</tspan></tspan></tspan></text>
 <text class="TextShape"><tspan class="TextParagraph" font-family="Liberation Sans, sans-serif" font-size="353px" font-weight="400"><tspan class="TextPosition" x="1009" y="7645"><tspan fill="rgb(0,0,0)" stroke="none">zstd -3 </tspan></tspan></tspan></text>
 <text class="TextShape"><tspan class="TextParagraph" font-family="Liberation Sans, sans-serif" font-size="353px" font-weight="400"><tspan class="TextPosition" x="506" y="8507"><tspan fill="rgb(0,0,0)" stroke="none">zstd -3 -T0</tspan></tspan></tspan></text>
 <text class="TextShape"><tspan class="TextParagraph" font-family="Liberation Sans, sans-serif" font-size="353px" font-weight="400"><tspan class="TextPosition" x="2092" y="1595"><tspan fill="rgb(0,0,0)" stroke="none">0.00</tspan></tspan></tspan></text>
 <text class="TextShape"><tspan class="TextParagraph" font-family="Liberation Sans, sans-serif" font-size="353px" font-weight="400"><tspan class="TextPosition" x="4246" y="1595"><tspan fill="rgb(0,0,0)" stroke="none">1.00</tspan></tspan></tspan></text>
 <text class="TextShape"><tspan class="TextParagraph" font-family="Liberation Sans, sans-serif" font-size="353px" font-weight="400"><tspan class="TextPosition" x="6400" y="1595"><tspan fill="rgb(0,0,0)" stroke="none">2.00</tspan></tspan></tspan></text>
 <text class="TextShape"><tspan class="TextParagraph" font-family="Liberation Sans, sans-serif" font-size="353px" font-weight="400"><tspan class="TextPosition" x="8554" y="1595"><tspan fill="rgb(0,0,0)" stroke="none">3.00</tspan></tspan></tspan></text>
 <text class="TextShape"><tspan class="TextParagraph" font-family="Liberation Sans, sans-serif" font-size="353px" font-weight="400"><tspan class="TextPosition" x="10708" y="1595"><tspan fill="rgb(0,0,0)" stroke="none">4.00</tspan></tspan></tspan></text>
 <text class="TextShape"><tspan class="TextParagraph" font-family="Liberation Sans, sans-serif" font-size="353px" font-weight="400"><tspan class="TextPosition" x="12862" y="1595"><tspan fill="rgb(0,0,0)" stroke="none">5.00</tspan></tspan></tspan></text>
 <text class="TextShape"><tspan class="TextParagraph" font-family="Liberation Sans, sans-serif" font-size="353px" font-weight="400"><tspan class="TextPosition" x="15017" y="1595"><tspan fill="rgb(0,0,0)" stroke="none">6.00</tspan></tspan></tspan></text>
 <text class="TextShape"><tspan class="TextParagraph" font-family="Liberation Sans, sans-serif" font-size="459px" font-weight="400"><tspan class="TextPosition" x="4970" y="850"><tspan fill="rgb(0,0,0)" stroke="none">Time for initrd compression [s]</tspan></tspan></tspan></text>
</svg>