<?xml version="1.0" encoding="UTF-8" standalone="no"?>
<svg
   width="201mm"
   height="146mm"
   viewBox="0 0 20100 14600"
   version="1.1"
   stroke-width="28.222"
   stroke-linejoin="round"
   xml:space="preserve"
   id="svg550"
   sodipodi:docname="kernel-inst-06.svg"
   inkscape:version="1.1 (c68e22c387, 2021-05-23)"
   xmlns:inkscape="http://www.inkscape.org/namespaces/inkscape"
   xmlns:sodipodi="http://sodipodi.sourceforge.net/DTD/sodipodi-0.dtd"
   xmlns="http://www.w3.org/2000/svg"
   xmlns:svg="http://www.w3.org/2000/svg"><defs
   id="defs554" /><sodipodi:namedview
   id="namedview552"
   pagecolor="#ffffff"
   bordercolor="#666666"
   borderopacity="1.0"
   inkscape:pageshadow="2"
   inkscape:pageopacity="0.0"
   inkscape:pagecheckerboard="0"
   inkscape:document-units="mm"
   showgrid="false"
   inkscape:zoom="1.1412624"
   inkscape:cx="315.44017"
   inkscape:cy="275.57203"
   inkscape:window-width="1432"
   inkscape:window-height="1088"
   inkscape:window-x="47"
   inkscape:window-y="179"
   inkscape:window-maximized="0"
   inkscape:current-layer="layer1"
   showguides="true"
   inkscape:guide-bbox="true"><sodipodi:guide
     position="-2550.173,7181.3145"
     orientation="1,0"
     id="guide35027" /></sodipodi:namedview>
 <path
   fill="rgb(255,255,255)"
   stroke="none"
   d="M 10073,14638 L 0,14638 0,0 20145,0 20145,14638 10073,14638 Z"
   id="path2" />
 <path
   fill="none"
   stroke="rgb(179,179,179)"
   stroke-linejoin="round"
   d="M 9351,12716 L 2426,12716 2426,1500 16275,1500 16275,12716 9351,12716 Z"
   id="path4" />
 <path
   fill="none"
   stroke="rgb(179,179,179)"
   stroke-linejoin="round"
   d="M 2426,1499 L 2426,12715"
   id="path6" />
 <path
   fill="none"
   stroke="rgb(179,179,179)"
   stroke-linejoin="round"
   d="M 4404,1499 L 4404,12715"
   id="path8" />
 <path
   fill="none"
   stroke="rgb(179,179,179)"
   stroke-linejoin="round"
   d="M 6383,1499 L 6383,12715"
   id="path10" />
 <path
   fill="none"
   stroke="rgb(179,179,179)"
   stroke-linejoin="round"
   d="M 8361,1499 L 8361,12715"
   id="path12" />
 <path
   fill="none"
   stroke="rgb(179,179,179)"
   stroke-linejoin="round"
   d="M 10339,1499 L 10339,12715"
   id="path14" />
 <path
   fill="none"
   stroke="rgb(179,179,179)"
   stroke-linejoin="round"
   d="M 12317,1499 L 12317,12715"
   id="path16" />
 <path
   fill="none"
   stroke="rgb(179,179,179)"
   stroke-linejoin="round"
   d="M 14296,1499 L 14296,12715"
   id="path18" />
 <path
   fill="none"
   stroke="rgb(179,179,179)"
   stroke-linejoin="round"
   d="M 16275,1499 L 16275,12715"
   id="path20" />
 
 
 
 
 <path
   fill="none"
   stroke="rgb(179,179,179)"
   stroke-linejoin="round"
   d="M 2276,10989 L 2426,10989"
   id="path30" />
 <path
   fill="none"
   stroke="rgb(179,179,179)"
   stroke-linejoin="round"
   d="M 2276,10989 L 2426,10989"
   id="path32" />
 
 
 
 
 
 
 
 
 
 
 
 
 <path
   fill="none"
   stroke="rgb(179,179,179)"
   stroke-linejoin="round"
   d="M 2276,4950 L 2426,4950"
   id="path58" />
 <path
   fill="none"
   stroke="rgb(179,179,179)"
   stroke-linejoin="round"
   d="M 2276,4950 L 2426,4950"
   id="path60" />
 <path
   fill="none"
   stroke="rgb(179,179,179)"
   stroke-linejoin="round"
   d="M 2276,4087 L 2426,4087"
   id="path62" />
 <path
   fill="none"
   stroke="rgb(179,179,179)"
   stroke-linejoin="round"
   d="M 2276,4087 L 2426,4087"
   id="path64" />
 <path
   fill="none"
   stroke="rgb(179,179,179)"
   stroke-linejoin="round"
   d="M 2276,3224 L 2426,3224"
   id="path66" />
 <path
   fill="none"
   stroke="rgb(179,179,179)"
   stroke-linejoin="round"
   d="M 2276,3224 L 2426,3224"
   id="path68" />
 <path
   fill="none"
   stroke="rgb(179,179,179)"
   stroke-linejoin="round"
   d="M 2276,2361 L 2426,2361"
   id="path70" />
 <path
   fill="none"
   stroke="rgb(179,179,179)"
   stroke-linejoin="round"
   d="M 2276,2361 L 2426,2361"
   id="path72" />
 <path
   fill="none"
   stroke="rgb(179,179,179)"
   stroke-linejoin="round"
   d="M 2276,1499 L 2426,1499"
   id="path74" />
 <path
   fill="none"
   stroke="rgb(179,179,179)"
   stroke-linejoin="round"
   d="M 2276,1499 L 2426,1499"
   id="path76" />
 <path
   fill="none"
   stroke="rgb(179,179,179)"
   stroke-linejoin="round"
   d="M 2426,12715 L 2426,1499"
   id="path78" />
 <path
   fill="none"
   stroke="rgb(179,179,179)"
   stroke-linejoin="round"
   d="M 2426,12865 L 2426,12715"
   id="path80" />
 <path
   fill="none"
   stroke="rgb(179,179,179)"
   stroke-linejoin="round"
   d="M 2426,12865 L 2426,12715"
   id="path82" />
 <path
   fill="none"
   stroke="rgb(179,179,179)"
   stroke-linejoin="round"
   d="M 4404,12865 L 4404,12715"
   id="path84" />
 <path
   fill="none"
   stroke="rgb(179,179,179)"
   stroke-linejoin="round"
   d="M 4404,12865 L 4404,12715"
   id="path86" />
 <path
   fill="none"
   stroke="rgb(179,179,179)"
   stroke-linejoin="round"
   d="M 6383,12865 L 6383,12715"
   id="path88" />
 <path
   fill="none"
   stroke="rgb(179,179,179)"
   stroke-linejoin="round"
   d="M 6383,12865 L 6383,12715"
   id="path90" />
 <path
   fill="none"
   stroke="rgb(179,179,179)"
   stroke-linejoin="round"
   d="M 8361,12865 L 8361,12715"
   id="path92" />
 <path
   fill="none"
   stroke="rgb(179,179,179)"
   stroke-linejoin="round"
   d="M 8361,12865 L 8361,12715"
   id="path94" />
 <path
   fill="none"
   stroke="rgb(179,179,179)"
   stroke-linejoin="round"
   d="M 10339,12865 L 10339,12715"
   id="path96" />
 <path
   fill="none"
   stroke="rgb(179,179,179)"
   stroke-linejoin="round"
   d="M 10339,12865 L 10339,12715"
   id="path98" />
 <path
   fill="none"
   stroke="rgb(179,179,179)"
   stroke-linejoin="round"
   d="M 12317,12865 L 12317,12715"
   id="path100" />
 <path
   fill="none"
   stroke="rgb(179,179,179)"
   stroke-linejoin="round"
   d="M 12317,12865 L 12317,12715"
   id="path102" />
 <path
   fill="none"
   stroke="rgb(179,179,179)"
   stroke-linejoin="round"
   d="M 14296,12865 L 14296,12715"
   id="path104" />
 <path
   fill="none"
   stroke="rgb(179,179,179)"
   stroke-linejoin="round"
   d="M 14296,12865 L 14296,12715"
   id="path106" />
 <path
   fill="none"
   stroke="rgb(179,179,179)"
   stroke-linejoin="round"
   d="M 16275,12865 L 16275,12715"
   id="path108" />
 <path
   fill="none"
   stroke="rgb(179,179,179)"
   stroke-linejoin="round"
   d="M 16275,12865 L 16275,12715"
   id="path110" />
 <path
   fill="none"
   stroke="rgb(179,179,179)"
   stroke-linejoin="round"
   d="M 2426,12715 L 16275,12715"
   id="path112" />
 <path
   fill="rgb(36,83,255)"
   stroke="none"
   d="M 2426,2146 L 2426,1714 3629,1714 3629,2146 2426,2146 Z"
   id="path114" />
 <path
   fill="rgb(36,83,255)"
   stroke="none"
   d="M 2426,3008 L 2426,2577 4059,2577 4059,3008 2426,3008 Z"
   id="path116" />
 <path
   fill="rgb(36,83,255)"
   stroke="none"
   d="M 2426,3871 L 2426,3440 3151,3440 3151,3871 2426,3871 Z"
   id="path118" />
 <path
   fill="rgb(36,83,255)"
   stroke="none"
   d="M 2426,4734 L 2426,4303 3466,4303 3466,4734 2426,4734 Z"
   id="path120" />
 <path
   fill="rgb(36,83,255)"
   stroke="none"
   d="M 2426,5597 L 2426,5166 3685,5166 3685,5597 2426,5597 Z"
   id="path122" />
 
 
 
 
 
 
 
 
 <path
   fill="rgb(255,142,119)"
   stroke="none"
   d="M 3629,2146 L 3629,1714 3900,1714 3900,2146 3629,2146 Z"
   id="path140" />
 <path
   fill="rgb(255,142,119)"
   stroke="none"
   d="M 4059,3008 L 4059,2577 4485,2577 4485,3008 4059,3008 Z"
   id="path142" />
 <path
   fill="rgb(255,142,119)"
   stroke="none"
   d="M 3151,3871 L 3151,3440 5554,3440 5554,3871 3151,3871 Z"
   id="path144" />
 <path
   fill="rgb(255,142,119)"
   stroke="none"
   d="M 3466,4734 L 3466,4303 6975,4303 6975,4734 3466,4734 Z"
   id="path146" />
 <path
   fill="rgb(255,142,119)"
   stroke="none"
   d="M 3685,5597 L 3685,5166 8442,5166 8442,5597 3685,5597 Z"
   id="path148" />
 
 
 
 
 
 
 
 
 <path
   fill="rgb(144,235,205)"
   stroke="none"
   d="M 3900,2146 L 3900,1714 4276,1714 4276,2146 3900,2146 Z"
   id="path166" />
 <path
   fill="rgb(144,235,205)"
   stroke="none"
   d="M 4485,3008 L 4485,2577 5291,2577 5291,3008 4485,3008 Z"
   id="path168" />
 <path
   fill="rgb(144,235,205)"
   stroke="none"
   d="M 5554,3871 L 5554,3440 6261,3440 6261,3871 5554,3871 Z"
   id="path170" />
 <path
   fill="rgb(144,235,205)"
   stroke="none"
   d="M 6975,4734 L 6975,4303 8455,4303 8455,4734 6975,4734 Z"
   id="path172" />
 <path
   fill="rgb(144,235,205)"
   stroke="none"
   d="M 8442,5597 L 8442,5166 10720,5166 10720,5597 8442,5597 Z"
   id="path174" />
 
 
 
 
 
 <path
   fill="rgb(48,186,120)"
   stroke="none"
   d="M 4276,2146 L 4276,1714 4813,1714 4813,2146 4276,2146 Z"
   id="path186" />
 <path
   fill="rgb(48,186,120)"
   stroke="none"
   d="M 5291,3008 L 5291,2577 6397,2577 6397,3008 5291,3008 Z"
   id="path188" />
 <path
   fill="rgb(48,186,120)"
   stroke="none"
   d="M 6261,3871 L 6261,3440 7002,3440 7002,3871 6261,3871 Z"
   id="path190" />
 <path
   fill="rgb(48,186,120)"
   stroke="none"
   d="M 8455,4734 L 8455,4303 9950,4303 9950,4734 8455,4734 Z"
   id="path192" />
 <path
   fill="rgb(48,186,120)"
   stroke="none"
   d="M 10720,5597 L 10720,5166 12973,5166 12973,5597 10720,5597 Z"
   id="path194" />
 
 
 
 
 
 <path
   fill="rgb(122,212,170)"
   stroke="none"
   d="M 4813,2146 L 4813,1714 5147,1714 5147,2146 4813,2146 Z"
   id="path206" />
 <path
   fill="rgb(122,212,170)"
   stroke="none"
   d="M 6397,3008 L 6397,2577 7110,2577 7110,3008 6397,3008 Z"
   id="path208" />
 <path
   fill="rgb(122,212,170)"
   stroke="none"
   d="M 7002,3871 L 7002,3440 7485,3440 7485,3871 7002,3871 Z"
   id="path210" />
 <path
   fill="rgb(122,212,170)"
   stroke="none"
   d="M 9950,4734 L 9950,4303 10932,4303 10932,4734 9950,4734 Z"
   id="path212" />
 <path
   fill="rgb(122,212,170)"
   stroke="none"
   d="M 12973,5597 L 12973,5166 14457,5166 14457,5597 12973,5597 Z"
   id="path214" />
 
 
 
 
 
 <path
   fill="rgb(254,124,63)"
   stroke="none"
   d="M 5147,2146 L 5147,1714 5392,1714 5392,2146 5147,2146 Z"
   id="path226" />
 <path
   fill="rgb(254,124,63)"
   stroke="none"
   d="M 7110,3008 L 7110,2577 7613,2577 7613,3008 7110,3008 Z"
   id="path228" />
 <path
   fill="rgb(254,124,63)"
   stroke="none"
   d="M 7485,3871 L 7485,3440 7537,3440 7537,3871 7485,3871 Z"
   id="path230" />
 <path
   fill="rgb(254,124,63)"
   stroke="none"
   d="M 10932,4734 L 10932,4303 11065,4303 11065,4734 10932,4734 Z"
   id="path232" />
 <path
   fill="rgb(254,124,63)"
   stroke="none"
   d="M 14457,5597 L 14457,5166 14668,5166 14668,5597 14457,5597 Z"
   id="path234" />
 
 
 
 
 
 
 
 
 
 
 
 
 <path
   fill="rgb(25,32,114)"
   stroke="none"
   d="M 5392,2146 L 5392,1714 5598,1714 5598,2146 5392,2146 Z"
   id="path260" />
 <path
   fill="rgb(25,32,114)"
   stroke="none"
   d="M 7613,3008 L 7613,2577 8047,2577 8047,3008 7613,3008 Z"
   id="path262" />
 <path
   fill="rgb(25,32,114)"
   stroke="none"
   d="M 7537,3871 L 7537,3440 7746,3440 7746,3871 7537,3871 Z"
   id="path264" />
 <path
   fill="rgb(25,32,114)"
   stroke="none"
   d="M 11065,4734 L 11065,4303 11583,4303 11583,4734 11065,4734 Z"
   id="path266" />
 <path
   fill="rgb(25,32,114)"
   stroke="none"
   d="M 14668,5597 L 14668,5166 15453,5166 15453,5597 14668,5597 Z"
   id="path268" />
 
 
 
 
 
 
 
 
 
 
 
 
 
 
 
 
 <text
   class="TextShape"
   id="text356"
   x="-231.83391"
   y="-23.183392"><tspan
     class="TextParagraph"
     font-family="'Liberation Sans', sans-serif"
     font-size="353px"
     font-weight="400"
     id="tspan354"><tspan
       class="TextPosition"
       x="648.16608"
       y="5476.8164"
       id="tspan352"><tspan
         fill="#000000"
         stroke="none"
         id="tspan350">Leap 15.3</tspan></tspan></tspan></text>
 <text
   class="TextShape"
   id="text364"
   x="-788.23529"
   y="23.183392"><tspan
     class="TextParagraph"
     font-family="'Liberation Sans', sans-serif"
     font-size="353px"
     font-weight="400"
     id="tspan362"><tspan
       class="TextPosition"
       x="91.764694"
       y="4660.1836"
       id="tspan360"><tspan
         fill="#000000"
         stroke="none"
         id="tspan358">SLED 15 SP3</tspan></tspan></tspan></text>
 <text
   class="TextShape"
   id="text372"
   x="-741.86853"
   y="23.183392"><tspan
     class="TextParagraph"
     font-family="'Liberation Sans', sans-serif"
     font-size="353px"
     font-weight="400"
     id="tspan370"><tspan
       class="TextPosition"
       x="138.13148"
       y="3798.1833"
       id="tspan368"><tspan
         fill="#000000"
         stroke="none"
         id="tspan366">SLES 15 SP3</tspan></tspan></tspan></text>
 <text
   class="TextShape"
   id="text380"
   x="-417.30106"><tspan
     class="TextParagraph"
     font-family="'Liberation Sans', sans-serif"
     font-size="353px"
     font-weight="400"
     id="tspan378"><tspan
       class="TextPosition"
       x="91.698959"
       y="2912"
       id="tspan376"><tspan
         fill="#000000"
         stroke="none"
         id="tspan374">SLED 15 SP2</tspan></tspan></tspan></text>
 <text
   class="TextShape"
   id="text388"
   x="-347.75085"><tspan
     class="TextParagraph"
     font-family="'Liberation Sans', sans-serif"
     font-size="353px"
     font-weight="400"
     id="tspan386"><tspan
       class="TextPosition"
       x="161.24913"
       y="2049"
       id="tspan384"><tspan
         fill="#000000"
         stroke="none"
         id="tspan382">SLES 15 SP2</tspan></tspan></tspan></text>
 <text
   class="TextShape"
   id="text396"><tspan
     class="TextParagraph"
     font-family="Liberation Sans, sans-serif"
     font-size="353px"
     font-weight="400"
     id="tspan394"><tspan
       class="TextPosition"
       x="2188"
       y="13283"
       id="tspan392"><tspan
         fill="rgb(0,0,0)"
         stroke="none"
         id="tspan390">0.0</tspan></tspan></tspan></text>
 <text
   class="TextShape"
   id="text404"><tspan
     class="TextParagraph"
     font-family="Liberation Sans, sans-serif"
     font-size="353px"
     font-weight="400"
     id="tspan402"><tspan
       class="TextPosition"
       x="4073"
       y="13283"
       id="tspan400"><tspan
         fill="rgb(0,0,0)"
         stroke="none"
         id="tspan398">10.0</tspan></tspan></tspan></text>
 <text
   class="TextShape"
   id="text412"><tspan
     class="TextParagraph"
     font-family="Liberation Sans, sans-serif"
     font-size="353px"
     font-weight="400"
     id="tspan410"><tspan
       class="TextPosition"
       x="6052"
       y="13283"
       id="tspan408"><tspan
         fill="rgb(0,0,0)"
         stroke="none"
         id="tspan406">20.0</tspan></tspan></tspan></text>
 <text
   class="TextShape"
   id="text420"><tspan
     class="TextParagraph"
     font-family="Liberation Sans, sans-serif"
     font-size="353px"
     font-weight="400"
     id="tspan418"><tspan
       class="TextPosition"
       x="8030"
       y="13283"
       id="tspan416"><tspan
         fill="rgb(0,0,0)"
         stroke="none"
         id="tspan414">30.0</tspan></tspan></tspan></text>
 <text
   class="TextShape"
   id="text428"><tspan
     class="TextParagraph"
     font-family="Liberation Sans, sans-serif"
     font-size="353px"
     font-weight="400"
     id="tspan426"><tspan
       class="TextPosition"
       x="10009"
       y="13283"
       id="tspan424"><tspan
         fill="rgb(0,0,0)"
         stroke="none"
         id="tspan422">40.0</tspan></tspan></tspan></text>
 <text
   class="TextShape"
   id="text436"><tspan
     class="TextParagraph"
     font-family="Liberation Sans, sans-serif"
     font-size="353px"
     font-weight="400"
     id="tspan434"><tspan
       class="TextPosition"
       x="11987"
       y="13283"
       id="tspan432"><tspan
         fill="rgb(0,0,0)"
         stroke="none"
         id="tspan430">50.0</tspan></tspan></tspan></text>
 <text
   class="TextShape"
   id="text444"><tspan
     class="TextParagraph"
     font-family="Liberation Sans, sans-serif"
     font-size="353px"
     font-weight="400"
     id="tspan442"><tspan
       class="TextPosition"
       x="13966"
       y="13283"
       id="tspan440"><tspan
         fill="rgb(0,0,0)"
         stroke="none"
         id="tspan438">60.0</tspan></tspan></tspan></text>
 <text
   class="TextShape"
   id="text452"><tspan
     class="TextParagraph"
     font-family="Liberation Sans, sans-serif"
     font-size="353px"
     font-weight="400"
     id="tspan450"><tspan
       class="TextPosition"
       x="15945"
       y="13283"
       id="tspan448"><tspan
         fill="rgb(0,0,0)"
         stroke="none"
         id="tspan446">70.0</tspan></tspan></tspan></text>
 <text
   class="TextShape"
   id="text460"><tspan
     class="TextParagraph"
     font-family="Liberation Sans, sans-serif"
     font-size="459px"
     font-weight="400"
     id="tspan458"><tspan
       class="TextPosition"
       x="7853"
       y="962"
       id="tspan456"><tspan
         fill="rgb(0,0,0)"
         stroke="none"
         id="tspan454">Kernel installation (with KMPs)</tspan></tspan></tspan></text>
 <path
   fill="rgb(36,83,255)"
   stroke="none"
   d="M 17231,5678 L 17125,5678 17125,5467 17336,5467 17336,5678 17231,5678 Z"
   id="path462" />
 <path
   fill="rgb(255,142,119)"
   stroke="none"
   d="M 17231,6177 L 17125,6177 17125,5966 17336,5966 17336,6177 17231,6177 Z"
   id="path464" />
 <path
   fill="rgb(144,235,205)"
   stroke="none"
   d="M 17231,6676 L 17125,6676 17125,6465 17336,6465 17336,6676 17231,6676 Z"
   id="path466" />
 <path
   fill="rgb(48,186,120)"
   stroke="none"
   d="M 17231,7175 L 17125,7175 17125,6964 17336,6964 17336,7175 17231,7175 Z"
   id="path468" />
 <path
   fill="rgb(122,212,170)"
   stroke="none"
   d="M 17231,7673 L 17125,7673 17125,7462 17336,7462 17336,7673 17231,7673 Z"
   id="path470" />
 <path
   fill="rgb(254,124,63)"
   stroke="none"
   d="M 17231,8172 L 17125,8172 17125,7961 17336,7961 17336,8172 17231,8172 Z"
   id="path472" />
 <path
   fill="rgb(122,212,170)"
   stroke="none"
   d="M 17231,8671 L 17125,8671 17125,8460 17336,8460 17336,8671 17231,8671 Z"
   id="path474" />
 <path
   fill="rgb(25,32,114)"
   stroke="none"
   d="M 17231,9170 L 17125,9170 17125,8959 17336,8959 17336,9170 17231,9170 Z"
   id="path476" />
 <text
   class="TextShape"
   id="text484"><tspan
     class="TextParagraph"
     font-family="Liberation Sans, sans-serif"
     font-size="353px"
     font-weight="400"
     id="tspan482"><tspan
       class="TextPosition"
       x="17436"
       y="5691"
       id="tspan480"><tspan
         fill="rgb(0,0,0)"
         stroke="none"
         id="tspan478">rpm*</tspan></tspan></tspan></text>
 <text
   class="TextShape"
   id="text492"><tspan
     class="TextParagraph"
     font-family="Liberation Sans, sans-serif"
     font-size="353px"
     font-weight="400"
     id="tspan490"><tspan
       class="TextPosition"
       x="17436"
       y="6190"
       id="tspan488"><tspan
         fill="rgb(0,0,0)"
         stroke="none"
         id="tspan486">depmod</tspan></tspan></tspan></text>
 <text
   class="TextShape"
   id="text500"><tspan
     class="TextParagraph"
     font-family="Liberation Sans, sans-serif"
     font-size="353px"
     font-weight="400"
     id="tspan498"><tspan
       class="TextPosition"
       x="17436"
       y="6689"
       id="tspan496"><tspan
         fill="rgb(0,0,0)"
         stroke="none"
         id="tspan494">dracut(module)</tspan></tspan></tspan></text>
 <text
   class="TextShape"
   id="text508"><tspan
     class="TextParagraph"
     font-family="Liberation Sans, sans-serif"
     font-size="353px"
     font-weight="400"
     id="tspan506"><tspan
       class="TextPosition"
       x="17436"
       y="7188"
       id="tspan504"><tspan
         fill="rgb(0,0,0)"
         stroke="none"
         id="tspan502">dracut(image)</tspan></tspan></tspan></text>
 <text
   class="TextShape"
   id="text516"><tspan
     class="TextParagraph"
     font-family="Liberation Sans, sans-serif"
     font-size="353px"
     font-weight="400"
     id="tspan514"><tspan
       class="TextPosition"
       x="17436"
       y="7686"
       id="tspan512"><tspan
         fill="rgb(0,0,0)"
         stroke="none"
         id="tspan510">dracut</tspan></tspan></tspan></text>
 <text
   class="TextShape"
   id="text524"><tspan
     class="TextParagraph"
     font-family="Liberation Sans, sans-serif"
     font-size="353px"
     font-weight="400"
     id="tspan522"><tspan
       class="TextPosition"
       x="17436"
       y="8185"
       id="tspan520"><tspan
         fill="rgb(0,0,0)"
         stroke="none"
         id="tspan518">weak-modules2</tspan></tspan></tspan></text>
 <text
   class="TextShape"
   id="text532"><tspan
     class="TextParagraph"
     font-family="Liberation Sans, sans-serif"
     font-size="353px"
     font-weight="400"
     id="tspan530"><tspan
       class="TextPosition"
       x="17436"
       y="8684"
       id="tspan528"><tspan
         fill="rgb(0,0,0)"
         stroke="none"
         id="tspan526">dracut-pt</tspan></tspan></tspan></text>
 <text
   class="TextShape"
   id="text540"><tspan
     class="TextParagraph"
     font-family="Liberation Sans, sans-serif"
     font-size="353px"
     font-weight="400"
     id="tspan538"><tspan
       class="TextPosition"
       x="17436"
       y="9183"
       id="tspan536"><tspan
         fill="rgb(0,0,0)"
         stroke="none"
         id="tspan534">transaction</tspan></tspan></tspan></text>
 <text
   class="TextShape"
   id="text548"><tspan
     class="TextParagraph"
     font-family="Liberation Sans, sans-serif"
     font-size="318px"
     font-weight="400"
     id="tspan546"><tspan
       class="TextPosition"
       x="8002"
       y="14044"
       id="tspan544"><tspan
         fill="rgb(0,0,0)"
         stroke="none"
         id="tspan542">time [s]</tspan></tspan></tspan></text>
<g
   inkscape:groupmode="layer"
   id="layer1"
   inkscape:label="XX"
   style="display:inline"><path
     fill="none"
     stroke="#b3b3b3"
     stroke-linejoin="round"
     d="m 2276,6676 h 150"
     id="path50" /><path
     fill="none"
     stroke="#b3b3b3"
     stroke-linejoin="round"
     d="m 2276,6676 h 150"
     id="path52" /><path
     fill="none"
     stroke="#b3b3b3"
     stroke-linejoin="round"
     d="m 2276,5813 h 150"
     id="path54" /><path
     fill="none"
     stroke="#b3b3b3"
     stroke-linejoin="round"
     d="m 2276,5813 h 150"
     id="path56" /><path
     fill="#2453ff"
     stroke="none"
     d="m 2426,6460 v -432 h 1265 v 432 z"
     id="path124" /><path
     fill="#ff8e77"
     stroke="none"
     d="m 3691,6460 v -432 h 4722 v 432 z"
     id="path150" /><path
     fill="#90ebcd"
     stroke="none"
     d="m 8413,6460 v -432 h 2251 v 432 z"
     id="path176" /><path
     fill="#30ba78"
     stroke="none"
     d="m 10664,6460 v -432 h 2253 v 432 z"
     id="path196" /><path
     fill="#7ad4aa"
     stroke="none"
     d="m 12917,6460 v -432 h 1468 v 432 z"
     id="path216" /><path
     fill="#fe7c3f"
     stroke="none"
     d="m 14385,6460 v -432 h 209 v 432 z"
     id="path236" /><path
     fill="#192072"
     stroke="none"
     d="m 14594,6460 v -432 h 762 v 432 z"
     id="path270" /><text
     class="TextShape"
     id="text348"><tspan
       class="TextParagraph"
       font-family="'Liberation Sans', sans-serif"
       font-size="353px"
       font-weight="400"
       id="tspan346"><tspan
         class="TextPosition"
         x="959"
         y="6363"
         id="tspan344"><tspan
           fill="#000000"
           stroke="none"
           id="tspan342">Lsinitrd</tspan></tspan></tspan></text></g><g
   inkscape:groupmode="layer"
   id="layer2"
   inkscape:label="XR"
   style="display:inline"><path
     fill="none"
     stroke="#b3b3b3"
     stroke-linejoin="round"
     d="m 2276,7537 h 150"
     id="path46" /><path
     fill="none"
     stroke="#b3b3b3"
     stroke-linejoin="round"
     d="m 2276,7537 h 150"
     id="path48" /><path
     fill="#2453ff"
     stroke="none"
     d="m 2426,7322 v -431 h 1276 v 431 z"
     id="path126" /><path
     fill="#ff8e77"
     stroke="none"
     d="m 3702,7322 v -431 h 4730 v 431 z"
     id="path152" /><path
     fill="#90ebcd"
     stroke="none"
     d="m 8432,7322 v -431 h 2272 v 431 z"
     id="path178" /><path
     fill="#30ba78"
     stroke="none"
     d="m 10704,7322 v -431 h 217 v 431 z"
     id="path198" /><path
     fill="#7ad4aa"
     stroke="none"
     d="m 10921,7322 v -431 h 1485 v 431 z"
     id="path218" /><path
     fill="#fe7c3f"
     stroke="none"
     d="m 12406,7322 v -431 h 212 v 431 z"
     id="path238" /><path
     fill="#192072"
     stroke="none"
     d="m 12618,7322 v -431 h 736 v 431 z"
     id="path272" /><text
     class="TextShape"
     id="text340"
     x="-185.46713"><tspan
       sodipodi:role="line"
       id="tspan19527"
       x="773.5329"
       y="7226"><tspan
         class="TextParagraph"
         font-family="'Liberation Sans', sans-serif"
         font-size="353px"
         font-weight="400"
         id="tspan338"><tspan
           class="TextPosition"
           x="773.5329"
           y="7226"
           id="tspan336"><tspan
             fill="#000000"
             stroke="none"
             id="tspan334">L+Reflink</tspan></tspan></tspan></tspan><tspan
       sodipodi:role="line"
       id="tspan19529"
       x="773.5329"
       y="7360.0928" /></text></g><g
   inkscape:groupmode="layer"
   id="layer3"
   inkscape:label="ZR"
   style="display:inline"><path
     fill="none"
     stroke="#b3b3b3"
     stroke-linejoin="round"
     d="m 2276,8400 h 150"
     id="path42" /><path
     fill="none"
     stroke="#b3b3b3"
     stroke-linejoin="round"
     d="m 2276,8400 h 150"
     id="path44" /><path
     fill="#2453ff"
     stroke="none"
     d="m 2426,8185 v -432 h 1797 v 432 z"
     id="path128" /><path
     fill="#ff8e77"
     stroke="none"
     d="m 4223,8185 v -432 h 1352 v 432 z"
     id="path154" /><path
     fill="#90ebcd"
     stroke="none"
     d="m 5575,8185 v -432 h 1978 v 432 z"
     id="path180" /><path
     fill="#30ba78"
     stroke="none"
     d="m 7553,8185 v -432 h 230 v 432 z"
     id="path200" /><path
     fill="#7ad4aa"
     stroke="none"
     d="m 7783,8185 v -432 h 1289 v 432 z"
     id="path220" /><path
     fill="#fe7c3f"
     stroke="none"
     d="m 9072,8185 v -432 h 213 v 432 z"
     id="path240" /><path
     fill="#192072"
     stroke="none"
     d="m 9285,8185 v -432 h 720 v 432 z"
     id="path274" /><text
     class="TextShape"
     id="text332"><tspan
       class="TextParagraph"
       font-family="'Liberation Sans', sans-serif"
       font-size="353px"
       font-weight="400"
       id="tspan330"><tspan
         class="TextPosition"
         x="985"
         y="8089"
         id="tspan328"><tspan
           fill="#000000"
           stroke="none"
           id="tspan326">LR+Zstd</tspan></tspan></tspan></text></g><g
   inkscape:groupmode="layer"
   id="layer4"
   inkscape:label="ZZ"
   style="display:inline"><path
     fill="none"
     stroke="#b3b3b3"
     stroke-linejoin="round"
     d="m 2276,9263 h 150"
     id="path38" /><path
     fill="none"
     stroke="#b3b3b3"
     stroke-linejoin="round"
     d="m 2276,9263 h 150"
     id="path40" /><path
     fill="#2453ff"
     stroke="none"
     d="m 2426,9047 v -431 h 1792 v 431 z"
     id="path130" /><path
     fill="#ff8e77"
     stroke="none"
     d="m 4218,9047 v -431 h 1347 v 431 z"
     id="path156" /><path
     fill="#90ebcd"
     stroke="none"
     d="m 5565,9047 v -431 h 1966 v 431 z"
     id="path182" /><path
     fill="#30ba78"
     stroke="none"
     d="m 7531,9047 v -431 h 399 v 431 z"
     id="path202" /><path
     fill="#7ad4aa"
     stroke="none"
     d="m 7930,9047 v -431 h 1310 v 431 z"
     id="path222" /><path
     fill="#fe7c3f"
     stroke="none"
     d="m 9240,9047 v -431 h 213 v 431 z"
     id="path242" /><path
     fill="#192072"
     stroke="none"
     d="m 9453,9047 v -431 h 738 v 431 z"
     id="path276" /><text
     class="TextShape"
     id="text324"
     x="-718.68506"
     y="3.3512009e-07"><tspan
       class="TextParagraph"
       font-family="'Liberation Sans', sans-serif"
       font-size="353px"
       font-weight="400"
       id="tspan322"><tspan
         class="TextPosition"
         x="293.31485"
         y="8952"
         id="tspan320"><tspan
           fill="#000000"
           stroke="none"
           id="tspan318">L+Zstd+Zstd</tspan></tspan></tspan></text></g><g
   inkscape:groupmode="layer"
   id="layer5"
   inkscape:label="SR"
   style="display:inline"><path
     fill="none"
     stroke="#b3b3b3"
     stroke-linejoin="round"
     d="m 2276,10126 h 150"
     id="path34" /><path
     fill="none"
     stroke="#b3b3b3"
     stroke-linejoin="round"
     d="m 2276,10126 h 150"
     id="path36" /><path
     fill="#2453ff"
     stroke="none"
     d="m 2426,9910 v -431 h 1800 v 431 z"
     id="path132" /><path
     fill="#ff8e77"
     stroke="none"
     d="m 4226,9910 v -431 h 1348 v 431 z"
     id="path158" /><path
     fill="#90ebcd"
     stroke="none"
     d="m 5574,9910 v -431 h 621 v 431 z"
     id="path184" /><path
     fill="#30ba78"
     stroke="none"
     d="m 6195,9910 v -431 h 59 v 431 z"
     id="path204" /><path
     fill="#7ad4aa"
     stroke="none"
     d="m 6254,9910 v -431 h 423 v 431 z"
     id="path224" /><path
     fill="#fe7c3f"
     stroke="none"
     d="m 6677,9910 v -431 h 307 v 431 z"
     id="path244" /><path
     fill="#7ad4aa"
     stroke="none"
     d="m 6984,9910 v -431 h 1198 v 431 z"
     id="path252" /><path
     fill="#192072"
     stroke="none"
     d="m 8182,9910 v -431 h 350 v 431 z"
     id="path278" /><text
     class="TextShape"
     id="text316"
     x="-950.51904"><tspan
       class="TextParagraph"
       font-family="'Liberation Sans', sans-serif"
       font-size="353px"
       font-weight="400"
       id="tspan314"><tspan
         class="TextPosition"
         x="8.4809589"
         y="9815"
         id="tspan312"><tspan
           fill="#000000"
           stroke="none"
           id="tspan310">LRZ+Scriptlets</tspan></tspan></tspan></text></g><g
   inkscape:groupmode="layer"
   id="layer7"
   inkscape:label="SRT"
   style="display:inline"><path
     fill="#2453ff"
     stroke="none"
     d="m 2426,10773 v -431 h 1808 v 431 z"
     id="path134" /><path
     fill="#ff8e77"
     stroke="none"
     d="m 4234,10773 v -431 h 1345 v 431 z"
     id="path160" /><path
     fill="#fe7c3f"
     stroke="none"
     d="m 5579,10773 v -431 h 197 v 431 z"
     id="path246" /><path
     fill="#7ad4aa"
     stroke="none"
     d="m 5776,10773 v -431 h 1199 v 431 z"
     id="path254" /><path
     fill="#192072"
     stroke="none"
     d="m 6975,10773 v -431 h 154 v 431 z"
     id="path280" /><text
     class="TextShape"
     id="text308"
     x="-1251.9031"><tspan
       class="TextParagraph"
       font-family="'Liberation Sans', sans-serif"
       font-size="353px"
       font-weight="400"
       id="tspan306"><tspan
         class="TextPosition"
         x="-504.90314"
         y="10677"
         id="tspan304"><tspan
           fill="#000000"
           stroke="none"
           id="tspan302">LRZS + Posttrans</tspan></tspan></tspan></text></g><g
   inkscape:groupmode="layer"
   id="layer6"
   inkscape:label="SRTI"
   style="display:none"><path
     fill="none"
     stroke="#b3b3b3"
     stroke-linejoin="round"
     d="m 2276,11852 h 150"
     id="path26" /><path
     fill="none"
     stroke="#b3b3b3"
     stroke-linejoin="round"
     d="m 2276,11852 h 150"
     id="path28" /><path
     fill="#2453ff"
     stroke="none"
     d="m 2426,11636 v -431 h 1800 v 431 z"
     id="path136" /><path
     fill="#ff8e77"
     stroke="none"
     d="m 4226,11636 v -431 h 694 v 431 z"
     id="path162" /><path
     fill="#fe7c3f"
     stroke="none"
     d="m 4920,11636 v -431 h 204 v 431 z"
     id="path248" /><path
     fill="#7ad4aa"
     stroke="none"
     d="m 5124,11636 v -431 h 1190 v 431 z"
     id="path256" /><path
     fill="#192072"
     stroke="none"
     d="m 6314,11636 v -431 h 155 v 431 z"
     id="path282" /><text
     class="TextShape"
     id="text300"
     x="-301.38409"
     y="23.183392"><tspan
       class="TextParagraph"
       font-family="'Liberation Sans', sans-serif"
       font-size="353px"
       font-weight="400"
       id="tspan298"><tspan
         class="TextPosition"
         x="339.61591"
         y="11563.184"
         id="tspan296"><tspan
           fill="#000000"
           stroke="none"
           id="tspan294">LRZST+Incr</tspan></tspan></tspan></text></g><g
   inkscape:groupmode="layer"
   id="layer8"
   inkscape:label="SRTIP"
   style="display:none"><path
     fill="none"
     stroke="#b3b3b3"
     stroke-linejoin="round"
     d="m 2276,12715 h 150"
     id="path22" /><path
     fill="none"
     stroke="#b3b3b3"
     stroke-linejoin="round"
     d="m 2276,12715 h 150"
     id="path24" /><path
     fill="#2453ff"
     stroke="none"
     d="m 2426,12499 v -432 h 1826 v 432 z"
     id="path138" /><path
     fill="#ff8e77"
     stroke="none"
     d="m 4252,12499 v -432 h 700 v 432 z"
     id="path164" /><path
     fill="#fe7c3f"
     stroke="none"
     d="m 4952,12499 v -432 h 204 v 432 z"
     id="path250" /><path
     fill="#7ad4aa"
     stroke="none"
     d="m 5156,12499 v -432 h 1203 v 432 z"
     id="path258" /><path
     fill="#192072"
     stroke="none"
     d="m 6359,12499 v -432 h 146 v 432 z"
     id="path284" /><text
     class="TextShape"
     id="text292"
     x="-695.50171"
     y="23.183392"><tspan
       class="TextParagraph"
       font-family="'Liberation Sans', sans-serif"
       font-size="353px"
       font-weight="400"
       id="tspan290"><tspan
         class="TextPosition"
         x="-292.50174"
         y="12426.184"
         id="tspan288"><tspan
           fill="#000000"
           stroke="none"
           id="tspan286">LRZSTI+Parallel</tspan></tspan></tspan></text></g></svg>
