<?xml version="1.0" encoding="UTF-8" standalone="no"?>
<svg
   width="201mm"
   height="146mm"
   viewBox="0 0 20100 14600"
   version="1.1"
   stroke-width="28.222"
   stroke-linejoin="round"
   xml:space="preserve"
   id="svg40397"
   sodipodi:docname="KMP-inst-01.svg"
   inkscape:version="1.1 (c68e22c387, 2021-05-23)"
   xmlns:inkscape="http://www.inkscape.org/namespaces/inkscape"
   xmlns:sodipodi="http://sodipodi.sourceforge.net/DTD/sodipodi-0.dtd"
   xmlns="http://www.w3.org/2000/svg"
   xmlns:svg="http://www.w3.org/2000/svg"><defs
   id="defs40401" /><sodipodi:namedview
   id="namedview40399"
   pagecolor="#ffffff"
   bordercolor="#666666"
   borderopacity="1.0"
   inkscape:pageshadow="2"
   inkscape:pageopacity="0.0"
   inkscape:pagecheckerboard="0"
   inkscape:document-units="mm"
   showgrid="false"
   inkscape:zoom="1.1412624"
   inkscape:cx="272.94336"
   inkscape:cy="275.57202"
   inkscape:window-width="1457"
   inkscape:window-height="1088"
   inkscape:window-x="112"
   inkscape:window-y="403"
   inkscape:window-maximized="0"
   inkscape:current-layer="layer1" />
 
 <path
   fill="none"
   stroke="rgb(179,179,179)"
   stroke-linejoin="round"
   d="M 9304,12716 L 2426,12716 2426,1500 16182,1500 16182,12716 9304,12716 Z"
   id="path39835" />
 <path
   fill="none"
   stroke="rgb(179,179,179)"
   stroke-linejoin="round"
   d="M 2426,1499 L 2426,12715"
   id="path39837" />
 <path
   fill="none"
   stroke="rgb(179,179,179)"
   stroke-linejoin="round"
   d="M 4718,1499 L 4718,12715"
   id="path39839" />
 <path
   fill="none"
   stroke="rgb(179,179,179)"
   stroke-linejoin="round"
   d="M 7011,1499 L 7011,12715"
   id="path39841" />
 <path
   fill="none"
   stroke="rgb(179,179,179)"
   stroke-linejoin="round"
   d="M 9304,1499 L 9304,12715"
   id="path39843" />
 <path
   fill="none"
   stroke="rgb(179,179,179)"
   stroke-linejoin="round"
   d="M 11596,1499 L 11596,12715"
   id="path39845" />
 <path
   fill="none"
   stroke="rgb(179,179,179)"
   stroke-linejoin="round"
   d="M 13889,1499 L 13889,12715"
   id="path39847" />
 <path
   fill="none"
   stroke="rgb(179,179,179)"
   stroke-linejoin="round"
   d="M 16181,1499 L 16181,12715"
   id="path39849" />
 <path
   fill="none"
   stroke="rgb(179,179,179)"
   stroke-linejoin="round"
   d="M 2276,12715 L 2426,12715"
   id="path39851" />
 <path
   fill="none"
   stroke="rgb(179,179,179)"
   stroke-linejoin="round"
   d="M 2276,12715 L 2426,12715"
   id="path39853" />
 
 
 <path
   fill="none"
   stroke="rgb(179,179,179)"
   stroke-linejoin="round"
   d="M 2276,10989 L 2426,10989"
   id="path39859" />
 <path
   fill="none"
   stroke="rgb(179,179,179)"
   stroke-linejoin="round"
   d="M 2276,10989 L 2426,10989"
   id="path39861" />
 
 
 
 
 
 
 
 
 
 
 <path
   fill="none"
   stroke="rgb(179,179,179)"
   stroke-linejoin="round"
   d="M 2276,5813 L 2426,5813"
   id="path39883" />
 <path
   fill="none"
   stroke="rgb(179,179,179)"
   stroke-linejoin="round"
   d="M 2276,5813 L 2426,5813"
   id="path39885" />
 <path
   fill="none"
   stroke="rgb(179,179,179)"
   stroke-linejoin="round"
   d="M 2276,4950 L 2426,4950"
   id="path39887" />
 <path
   fill="none"
   stroke="rgb(179,179,179)"
   stroke-linejoin="round"
   d="M 2276,4950 L 2426,4950"
   id="path39889" />
 <path
   fill="none"
   stroke="rgb(179,179,179)"
   stroke-linejoin="round"
   d="M 2276,4087 L 2426,4087"
   id="path39891" />
 <path
   fill="none"
   stroke="rgb(179,179,179)"
   stroke-linejoin="round"
   d="M 2276,4087 L 2426,4087"
   id="path39893" />
 <path
   fill="none"
   stroke="rgb(179,179,179)"
   stroke-linejoin="round"
   d="M 2276,3224 L 2426,3224"
   id="path39895" />
 <path
   fill="none"
   stroke="rgb(179,179,179)"
   stroke-linejoin="round"
   d="M 2276,3224 L 2426,3224"
   id="path39897" />
 <path
   fill="none"
   stroke="rgb(179,179,179)"
   stroke-linejoin="round"
   d="M 2276,2361 L 2426,2361"
   id="path39899" />
 <path
   fill="none"
   stroke="rgb(179,179,179)"
   stroke-linejoin="round"
   d="M 2276,2361 L 2426,2361"
   id="path39901" />
 <path
   fill="none"
   stroke="rgb(179,179,179)"
   stroke-linejoin="round"
   d="M 2276,1499 L 2426,1499"
   id="path39903" />
 <path
   fill="none"
   stroke="rgb(179,179,179)"
   stroke-linejoin="round"
   d="M 2276,1499 L 2426,1499"
   id="path39905" />
 <path
   fill="none"
   stroke="rgb(179,179,179)"
   stroke-linejoin="round"
   d="M 2426,12715 L 2426,1499"
   id="path39907" />
 <path
   fill="none"
   stroke="rgb(179,179,179)"
   stroke-linejoin="round"
   d="M 2426,12865 L 2426,12715"
   id="path39909" />
 <path
   fill="none"
   stroke="rgb(179,179,179)"
   stroke-linejoin="round"
   d="M 2426,12865 L 2426,12715"
   id="path39911" />
 <path
   fill="none"
   stroke="rgb(179,179,179)"
   stroke-linejoin="round"
   d="M 4718,12865 L 4718,12715"
   id="path39913" />
 <path
   fill="none"
   stroke="rgb(179,179,179)"
   stroke-linejoin="round"
   d="M 4718,12865 L 4718,12715"
   id="path39915" />
 <path
   fill="none"
   stroke="rgb(179,179,179)"
   stroke-linejoin="round"
   d="M 7011,12865 L 7011,12715"
   id="path39917" />
 <path
   fill="none"
   stroke="rgb(179,179,179)"
   stroke-linejoin="round"
   d="M 7011,12865 L 7011,12715"
   id="path39919" />
 <path
   fill="none"
   stroke="rgb(179,179,179)"
   stroke-linejoin="round"
   d="M 9304,12865 L 9304,12715"
   id="path39921" />
 <path
   fill="none"
   stroke="rgb(179,179,179)"
   stroke-linejoin="round"
   d="M 9304,12865 L 9304,12715"
   id="path39923" />
 <path
   fill="none"
   stroke="rgb(179,179,179)"
   stroke-linejoin="round"
   d="M 11596,12865 L 11596,12715"
   id="path39925" />
 <path
   fill="none"
   stroke="rgb(179,179,179)"
   stroke-linejoin="round"
   d="M 11596,12865 L 11596,12715"
   id="path39927" />
 <path
   fill="none"
   stroke="rgb(179,179,179)"
   stroke-linejoin="round"
   d="M 13889,12865 L 13889,12715"
   id="path39929" />
 <path
   fill="none"
   stroke="rgb(179,179,179)"
   stroke-linejoin="round"
   d="M 13889,12865 L 13889,12715"
   id="path39931" />
 <path
   fill="none"
   stroke="rgb(179,179,179)"
   stroke-linejoin="round"
   d="M 16181,12865 L 16181,12715"
   id="path39933" />
 <path
   fill="none"
   stroke="rgb(179,179,179)"
   stroke-linejoin="round"
   d="M 16181,12865 L 16181,12715"
   id="path39935" />
 <path
   fill="none"
   stroke="rgb(179,179,179)"
   stroke-linejoin="round"
   d="M 2426,12715 L 16181,12715"
   id="path39937" />
 <path
   fill="rgb(36,83,255)"
   stroke="none"
   d="M 2426,2146 L 2426,1714 2742,1714 2742,2146 2426,2146 Z"
   id="path39939" />
 <path
   fill="rgb(36,83,255)"
   stroke="none"
   d="M 2426,3008 L 2426,2577 2742,2577 2742,3008 2426,3008 Z"
   id="path39941" />
 <path
   fill="rgb(36,83,255)"
   stroke="none"
   d="M 2426,3871 L 2426,3440 2956,3440 2956,3871 2426,3871 Z"
   id="path39943" />
 <path
   fill="rgb(36,83,255)"
   stroke="none"
   d="M 2426,4734 L 2426,4303 2951,4303 2951,4734 2426,4734 Z"
   id="path39945" />
 <path
   fill="rgb(36,83,255)"
   stroke="none"
   d="M 2426,5597 L 2426,5166 2952,5166 2952,5597 2426,5597 Z"
   id="path39947" />
 
 
 
 
 
 
 
 
 <path
   fill="rgb(255,142,119)"
   stroke="none"
   d="M 2742,2146 L 2742,1714 3358,1714 3358,2146 2742,2146 Z"
   id="path39965" />
 <path
   fill="rgb(255,142,119)"
   stroke="none"
   d="M 2742,3008 L 2742,2577 3712,2577 3712,3008 2742,3008 Z"
   id="path39967" />
 <path
   fill="rgb(255,142,119)"
   stroke="none"
   d="M 2956,3871 L 2956,3440 7663,3440 7663,3871 2956,3871 Z"
   id="path39969" />
 <path
   fill="rgb(255,142,119)"
   stroke="none"
   d="M 2951,4734 L 2951,4303 9439,4303 9439,4734 2951,4734 Z"
   id="path39971" />
 <path
   fill="rgb(255,142,119)"
   stroke="none"
   d="M 2952,5597 L 2952,5166 10161,5166 10161,5597 2952,5597 Z"
   id="path39973" />
 
 
 
 
 
 
 
 
 <path
   fill="rgb(255,106,82)"
   stroke="none"
   d="M 3358,2146 L 3358,1714 5606,1714 5606,2146 3358,2146 Z"
   id="path39991" />
 <path
   fill="rgb(255,106,82)"
   stroke="none"
   d="M 3712,3008 L 3712,2577 5983,2577 5983,3008 3712,3008 Z"
   id="path39993" />
 <path
   fill="rgb(255,106,82)"
   stroke="none"
   d="M 7663,3871 L 7663,3440 8949,3440 8949,3871 7663,3871 Z"
   id="path39995" />
 <path
   fill="rgb(255,106,82)"
   stroke="none"
   d="M 9439,4734 L 9439,4303 10769,4303 10769,4734 9439,4734 Z"
   id="path39997" />
 <path
   fill="rgb(255,106,82)"
   stroke="none"
   d="M 10161,5597 L 10161,5166 11510,5166 11510,5597 10161,5597 Z"
   id="path39999" />
 
 
 
 
 
 
 
 
 <path
   fill="rgb(254,124,63)"
   stroke="none"
   d="M 5606,2146 L 5606,1714 5651,1714 5651,2146 5606,2146 Z"
   id="path40017" />
 <path
   fill="rgb(254,124,63)"
   stroke="none"
   d="M 5983,3008 L 5983,2577 6031,2577 6031,3008 5983,3008 Z"
   id="path40019" />
 <path
   fill="rgb(254,124,63)"
   stroke="none"
   d="M 8949,3871 L 8949,3440 9004,3440 9004,3871 8949,3871 Z"
   id="path40021" />
 <path
   fill="rgb(254,124,63)"
   stroke="none"
   d="M 10769,4734 L 10769,4303 10829,4303 10829,4734 10769,4734 Z"
   id="path40023" />
 <path
   fill="rgb(254,124,63)"
   stroke="none"
   d="M 11510,5597 L 11510,5166 11571,5166 11571,5597 11510,5597 Z"
   id="path40025" />
 
 
 
 
 
 
 
 
 <path
   fill="rgb(144,235,205)"
   stroke="none"
   d="M 5651,2146 L 5651,1714 6093,1714 6093,2146 5651,2146 Z"
   id="path40043" />
 <path
   fill="rgb(144,235,205)"
   stroke="none"
   d="M 6031,3008 L 6031,2577 6531,2577 6531,3008 6031,3008 Z"
   id="path40045" />
 <path
   fill="rgb(144,235,205)"
   stroke="none"
   d="M 9004,3871 L 9004,3440 9815,3440 9815,3871 9004,3871 Z"
   id="path40047" />
 <path
   fill="rgb(144,235,205)"
   stroke="none"
   d="M 10829,4734 L 10829,4303 11725,4303 11725,4734 10829,4734 Z"
   id="path40049" />
 <path
   fill="rgb(144,235,205)"
   stroke="none"
   d="M 11571,5597 L 11571,5166 12481,5166 12481,5597 11571,5597 Z"
   id="path40051" />
 
 
 
 
 <path
   fill="rgb(48,186,120)"
   stroke="none"
   d="M 6093,2146 L 6093,1714 6717,1714 6717,2146 6093,2146 Z"
   id="path40061" />
 <path
   fill="rgb(48,186,120)"
   stroke="none"
   d="M 6531,3008 L 6531,2577 7185,2577 7185,3008 6531,3008 Z"
   id="path40063" />
 <path
   fill="rgb(48,186,120)"
   stroke="none"
   d="M 9815,3871 L 9815,3440 10657,3440 10657,3871 9815,3871 Z"
   id="path40065" />
 <path
   fill="rgb(48,186,120)"
   stroke="none"
   d="M 11725,4734 L 11725,4303 12600,4303 12600,4734 11725,4734 Z"
   id="path40067" />
 <path
   fill="rgb(48,186,120)"
   stroke="none"
   d="M 12481,5597 L 12481,5166 13358,5166 13358,5597 12481,5597 Z"
   id="path40069" />
 
 
 
 
 <path
   fill="rgb(122,212,170)"
   stroke="none"
   d="M 6717,2146 L 6717,1714 7108,1714 7108,2146 6717,2146 Z"
   id="path40079" />
 <path
   fill="rgb(122,212,170)"
   stroke="none"
   d="M 7185,3008 L 7185,2577 7616,2577 7616,3008 7185,3008 Z"
   id="path40081" />
 <path
   fill="rgb(122,212,170)"
   stroke="none"
   d="M 10657,3871 L 10657,3440 11211,3440 11211,3871 10657,3871 Z"
   id="path40083" />
 <path
   fill="rgb(122,212,170)"
   stroke="none"
   d="M 12600,4734 L 12600,4303 13178,4303 13178,4734 12600,4734 Z"
   id="path40085" />
 <path
   fill="rgb(122,212,170)"
   stroke="none"
   d="M 13358,5597 L 13358,5166 13934,5166 13934,5597 13358,5597 Z"
   id="path40087" />
 
 
 
 
 
 
 
 
 <path
   fill="rgb(25,32,114)"
   stroke="none"
   d="M 7108,2146 L 7108,1714 7319,1714 7319,2146 7108,2146 Z"
   id="path40105" />
 <path
   fill="rgb(25,32,114)"
   stroke="none"
   d="M 7616,3008 L 7616,2577 7827,2577 7827,3008 7616,3008 Z"
   id="path40107" />
 <path
   fill="rgb(25,32,114)"
   stroke="none"
   d="M 11211,3871 L 11211,3440 11225,3440 11225,3871 11211,3871 Z"
   id="path40109" />
 <path
   fill="rgb(25,32,114)"
   stroke="none"
   d="M 13178,4734 L 13178,4303 13192,4303 13192,4734 13178,4734 Z"
   id="path40111" />
 <path
   fill="rgb(25,32,114)"
   stroke="none"
   d="M 13934,5597 L 13934,5166 13949,5166 13949,5597 13934,5597 Z"
   id="path40113" />
 
 
 
 
 
 
 
 
 
 
 
 
 
 
 
 
 
 
 
 
 
 <text
   class="TextShape"
   id="text40241"><tspan
     class="TextParagraph"
     font-family="Liberation Sans, sans-serif"
     font-size="353px"
     font-weight="400"
     id="tspan40239"><tspan
       class="TextPosition"
       x="2188"
       y="13283"
       id="tspan40237"><tspan
         fill="rgb(0,0,0)"
         stroke="none"
         id="tspan40235">0.0</tspan></tspan></tspan></text>
 <text
   class="TextShape"
   id="text40249"><tspan
     class="TextParagraph"
     font-family="Liberation Sans, sans-serif"
     font-size="353px"
     font-weight="400"
     id="tspan40247"><tspan
       class="TextPosition"
       x="4387"
       y="13283"
       id="tspan40245"><tspan
         fill="rgb(0,0,0)"
         stroke="none"
         id="tspan40243">20.0</tspan></tspan></tspan></text>
 <text
   class="TextShape"
   id="text40257"><tspan
     class="TextParagraph"
     font-family="Liberation Sans, sans-serif"
     font-size="353px"
     font-weight="400"
     id="tspan40255"><tspan
       class="TextPosition"
       x="6680"
       y="13283"
       id="tspan40253"><tspan
         fill="rgb(0,0,0)"
         stroke="none"
         id="tspan40251">40.0</tspan></tspan></tspan></text>
 <text
   class="TextShape"
   id="text40265"><tspan
     class="TextParagraph"
     font-family="Liberation Sans, sans-serif"
     font-size="353px"
     font-weight="400"
     id="tspan40263"><tspan
       class="TextPosition"
       x="8973"
       y="13283"
       id="tspan40261"><tspan
         fill="rgb(0,0,0)"
         stroke="none"
         id="tspan40259">60.0</tspan></tspan></tspan></text>
 <text
   class="TextShape"
   id="text40273"><tspan
     class="TextParagraph"
     font-family="Liberation Sans, sans-serif"
     font-size="353px"
     font-weight="400"
     id="tspan40271"><tspan
       class="TextPosition"
       x="11266"
       y="13283"
       id="tspan40269"><tspan
         fill="rgb(0,0,0)"
         stroke="none"
         id="tspan40267">80.0</tspan></tspan></tspan></text>
 <text
   class="TextShape"
   id="text40281"><tspan
     class="TextParagraph"
     font-family="Liberation Sans, sans-serif"
     font-size="353px"
     font-weight="400"
     id="tspan40279"><tspan
       class="TextPosition"
       x="13466"
       y="13283"
       id="tspan40277"><tspan
         fill="rgb(0,0,0)"
         stroke="none"
         id="tspan40275">100.0</tspan></tspan></tspan></text>
 <text
   class="TextShape"
   id="text40289"><tspan
     class="TextParagraph"
     font-family="Liberation Sans, sans-serif"
     font-size="353px"
     font-weight="400"
     id="tspan40287"><tspan
       class="TextPosition"
       x="15758"
       y="13283"
       id="tspan40285"><tspan
         fill="rgb(0,0,0)"
         stroke="none"
         id="tspan40283">120.0</tspan></tspan></tspan></text>
 <text
   class="TextShape"
   id="text40297"><tspan
     class="TextParagraph"
     font-family="Liberation Sans, sans-serif"
     font-size="459px"
     font-weight="400"
     id="tspan40295"><tspan
       class="TextPosition"
       x="7853"
       y="962"
       id="tspan40293"><tspan
         fill="rgb(0,0,0)"
         stroke="none"
         id="tspan40291">Installation of 2 KMPs</tspan></tspan></tspan></text>
 <path
   fill="rgb(36,83,255)"
   stroke="none"
   d="M 17231,5428 L 17125,5428 17125,5217 17336,5217 17336,5428 17231,5428 Z"
   id="path40299" />
 <path
   fill="rgb(255,142,119)"
   stroke="none"
   d="M 17231,5927 L 17125,5927 17125,5716 17336,5716 17336,5927 17231,5927 Z"
   id="path40301" />
 <path
   fill="rgb(255,106,82)"
   stroke="none"
   d="M 17231,6426 L 17125,6426 17125,6215 17336,6215 17336,6426 17231,6426 Z"
   id="path40303" />
 <path
   fill="rgb(254,124,63)"
   stroke="none"
   d="M 17231,6925 L 17125,6925 17125,6714 17336,6714 17336,6925 17231,6925 Z"
   id="path40305" />
 <path
   fill="rgb(144,235,205)"
   stroke="none"
   d="M 17231,7423 L 17125,7423 17125,7213 17336,7213 17336,7423 17231,7423 Z"
   id="path40307" />
 <path
   fill="rgb(48,186,120)"
   stroke="none"
   d="M 17231,7922 L 17125,7922 17125,7711 17336,7711 17336,7922 17231,7922 Z"
   id="path40309" />
 <path
   fill="rgb(122,212,170)"
   stroke="none"
   d="M 17231,8421 L 17125,8421 17125,8210 17336,8210 17336,8421 17231,8421 Z"
   id="path40311" />
 <path
   fill="rgb(122,212,170)"
   stroke="none"
   d="M 17231,8920 L 17125,8920 17125,8709 17336,8709 17336,8920 17231,8920 Z"
   id="path40313" />
 <path
   fill="rgb(25,32,114)"
   stroke="none"
   d="M 17231,9419 L 17125,9419 17125,9208 17336,9208 17336,9419 17231,9419 Z"
   id="path40315" />
 <text
   class="TextShape"
   id="text40323"><tspan
     class="TextParagraph"
     font-family="Liberation Sans, sans-serif"
     font-size="353px"
     font-weight="400"
     id="tspan40321"><tspan
       class="TextPosition"
       x="17436"
       y="5441"
       id="tspan40319"><tspan
         fill="rgb(0,0,0)"
         stroke="none"
         id="tspan40317">rpm*</tspan></tspan></tspan></text>
 <text
   class="TextShape"
   id="text40331"><tspan
     class="TextParagraph"
     font-family="Liberation Sans, sans-serif"
     font-size="353px"
     font-weight="400"
     id="tspan40329"><tspan
       class="TextPosition"
       x="17436"
       y="5940"
       id="tspan40327"><tspan
         fill="rgb(0,0,0)"
         stroke="none"
         id="tspan40325">depmod</tspan></tspan></tspan></text>
 <text
   class="TextShape"
   id="text40339"><tspan
     class="TextParagraph"
     font-family="Liberation Sans, sans-serif"
     font-size="353px"
     font-weight="400"
     id="tspan40337"><tspan
       class="TextPosition"
       x="17436"
       y="6439"
       id="tspan40335"><tspan
         fill="rgb(0,0,0)"
         stroke="none"
         id="tspan40333">lsinitrd</tspan></tspan></tspan></text>
 <text
   class="TextShape"
   id="text40347"><tspan
     class="TextParagraph"
     font-family="Liberation Sans, sans-serif"
     font-size="353px"
     font-weight="400"
     id="tspan40345"><tspan
       class="TextPosition"
       x="17436"
       y="6938"
       id="tspan40343"><tspan
         fill="rgb(0,0,0)"
         stroke="none"
         id="tspan40341">weak-modules2</tspan></tspan></tspan></text>
 <text
   class="TextShape"
   id="text40355"><tspan
     class="TextParagraph"
     font-family="Liberation Sans, sans-serif"
     font-size="353px"
     font-weight="400"
     id="tspan40353"><tspan
       class="TextPosition"
       x="17436"
       y="7436"
       id="tspan40351"><tspan
         fill="rgb(0,0,0)"
         stroke="none"
         id="tspan40349">dracut(module)</tspan></tspan></tspan></text>
 <text
   class="TextShape"
   id="text40363"><tspan
     class="TextParagraph"
     font-family="Liberation Sans, sans-serif"
     font-size="353px"
     font-weight="400"
     id="tspan40361"><tspan
       class="TextPosition"
       x="17436"
       y="7935"
       id="tspan40359"><tspan
         fill="rgb(0,0,0)"
         stroke="none"
         id="tspan40357">dracut(image)</tspan></tspan></tspan></text>
 <text
   class="TextShape"
   id="text40371"><tspan
     class="TextParagraph"
     font-family="Liberation Sans, sans-serif"
     font-size="353px"
     font-weight="400"
     id="tspan40369"><tspan
       class="TextPosition"
       x="17436"
       y="8434"
       id="tspan40367"><tspan
         fill="rgb(0,0,0)"
         stroke="none"
         id="tspan40365">dracut</tspan></tspan></tspan></text>
 <text
   class="TextShape"
   id="text40379"><tspan
     class="TextParagraph"
     font-family="Liberation Sans, sans-serif"
     font-size="353px"
     font-weight="400"
     id="tspan40377"><tspan
       class="TextPosition"
       x="17436"
       y="8933"
       id="tspan40375"><tspan
         fill="rgb(0,0,0)"
         stroke="none"
         id="tspan40373">dracut-pt</tspan></tspan></tspan></text>
 <text
   class="TextShape"
   id="text40387"><tspan
     class="TextParagraph"
     font-family="Liberation Sans, sans-serif"
     font-size="353px"
     font-weight="400"
     id="tspan40385"><tspan
       class="TextPosition"
       x="17436"
       y="9432"
       id="tspan40383"><tspan
         fill="rgb(0,0,0)"
         stroke="none"
         id="tspan40381">transaction</tspan></tspan></tspan></text>
 <text
   class="TextShape"
   id="text40395"><tspan
     class="TextParagraph"
     font-family="Liberation Sans, sans-serif"
     font-size="318px"
     font-weight="400"
     id="tspan40393"><tspan
       class="TextPosition"
       x="8002"
       y="14044"
       id="tspan40391"><tspan
         fill="rgb(0,0,0)"
         stroke="none"
         id="tspan40389">time [s]</tspan></tspan></tspan></text>
<g
   inkscape:groupmode="layer"
   id="layer1"
   inkscape:label="XX"
   style="display:inline"><path
     fill="none"
     stroke="#b3b3b3"
     stroke-linejoin="round"
     d="m 2276,6676 h 150"
     id="path39879" /><path
     fill="none"
     stroke="#b3b3b3"
     stroke-linejoin="round"
     d="m 2276,6676 h 150"
     id="path39881" /><path
     fill="#2453ff"
     stroke="none"
     d="m 2426,6460 v -432 h 525 v 432 z"
     id="path39949" /><path
     fill="#ff8e77"
     stroke="none"
     d="m 2951,6460 v -432 h 7191 v 432 z"
     id="path39975" /><path
     fill="#ff6a52"
     stroke="none"
     d="m 10142,6460 v -432 h 283 v 432 z"
     id="path40001" /><path
     fill="#fe7c3f"
     stroke="none"
     d="m 10425,6460 v -432 h 60 v 432 z"
     id="path40027" /><path
     fill="#90ebcd"
     stroke="none"
     d="m 10485,6460 v -432 h 901 v 432 z"
     id="path40053" /><path
     fill="#30ba78"
     stroke="none"
     d="m 11386,6460 v -432 h 876 v 432 z"
     id="path40071" /><path
     fill="#7ad4aa"
     stroke="none"
     d="m 12262,6460 v -432 h 570 v 432 z"
     id="path40089" /><path
     fill="#192072"
     stroke="none"
     d="m 12832,6460 v -432 h 15 v 432 z"
     id="path40115" /><text
     class="TextShape"
     id="text348"
     style="display:inline"
     x="114.94698"
     y="22.685349"><tspan
       class="TextParagraph"
       font-family="'Liberation Sans', sans-serif"
       font-size="353px"
       font-weight="400"
       id="tspan346"><tspan
         class="TextPosition"
         x="1073.947"
         y="6385.6855"
         id="tspan344"><tspan
           fill="#000000"
           stroke="none"
           id="tspan342">Lsinitrd</tspan></tspan></tspan></text></g><g
   inkscape:groupmode="layer"
   id="layer2"
   inkscape:label="XR"
   style="display:none"><path
     fill="none"
     stroke="#b3b3b3"
     stroke-linejoin="round"
     d="m 2276,7537 h 150"
     id="path39875" /><path
     fill="none"
     stroke="#b3b3b3"
     stroke-linejoin="round"
     d="m 2276,7537 h 150"
     id="path39877" /><path
     fill="#2453ff"
     stroke="none"
     d="m 2426,7322 v -431 h 526 v 431 z"
     id="path39951" /><path
     fill="#ff8e77"
     stroke="none"
     d="m 2952,7322 v -431 h 7210 v 431 z"
     id="path39977" /><path
     fill="#ff6a52"
     stroke="none"
     d="m 10162,7322 v -431 h 84 v 431 z"
     id="path40003" /><path
     fill="#fe7c3f"
     stroke="none"
     d="m 10246,7322 v -431 h 61 v 431 z"
     id="path40029" /><path
     fill="#90ebcd"
     stroke="none"
     d="m 10307,7322 v -431 h 910 v 431 z"
     id="path40055" /><path
     fill="#30ba78"
     stroke="none"
     d="m 11217,7322 v -431 h 101 v 431 z"
     id="path40073" /><path
     fill="#7ad4aa"
     stroke="none"
     d="m 11318,7322 v -431 h 573 v 431 z"
     id="path40091" /><path
     fill="#192072"
     stroke="none"
     d="m 11891,7322 v -431 h 15 v 431 z"
     id="path40117" /><text
     class="TextShape"
     id="text340"
     x="-184.3645"
     style="display:inline"
     y="40.654186"><tspan
       sodipodi:role="line"
       id="tspan19527"
       x="774.6355"
       y="7266.6543"><tspan
         class="TextParagraph"
         font-family="'Liberation Sans', sans-serif"
         font-size="353px"
         font-weight="400"
         id="tspan338"><tspan
           class="TextPosition"
           x="774.6355"
           y="7266.6543"
           id="tspan336"><tspan
             fill="#000000"
             stroke="none"
             id="tspan334">L+Reflink</tspan></tspan></tspan></tspan><tspan
       sodipodi:role="line"
       id="tspan19529"
       x="774.6355"
       y="7400.7471" /></text></g><g
   inkscape:groupmode="layer"
   id="layer3"
   inkscape:label="ZR"
   style="display:none"><path
     fill="none"
     stroke="#b3b3b3"
     stroke-linejoin="round"
     d="m 2276,8400 h 150"
     id="path39871" /><path
     fill="none"
     stroke="#b3b3b3"
     stroke-linejoin="round"
     d="m 2276,8400 h 150"
     id="path39873" /><path
     fill="#2453ff"
     stroke="none"
     d="m 2426,8185 v -432 h 538 v 432 z"
     id="path39953" /><path
     fill="#ff8e77"
     stroke="none"
     d="m 2964,8185 v -432 h 2488 v 432 z"
     id="path39979" /><path
     fill="#ff6a52"
     stroke="none"
     d="m 5452,8185 v -432 h 79 v 432 z"
     id="path40005" /><path
     fill="#fe7c3f"
     stroke="none"
     d="m 5531,8185 v -432 h 71 v 432 z"
     id="path40031" /><path
     fill="#90ebcd"
     stroke="none"
     d="m 5602,8185 v -432 h 795 v 432 z"
     id="path40057" /><path
     fill="#30ba78"
     stroke="none"
     d="m 6397,8185 v -432 h 96 v 432 z"
     id="path40075" /><path
     fill="#7ad4aa"
     stroke="none"
     d="m 6493,8185 v -432 h 500 v 432 z"
     id="path40093" /><path
     fill="#192072"
     stroke="none"
     d="m 6993,8185 v -432 h 16 v 432 z"
     id="path40119" /><text
     class="TextShape"
     id="text332"
     style="display:inline"
     x="-106.77361"
     y="-10.927154"><tspan
       class="TextParagraph"
       font-family="'Liberation Sans', sans-serif"
       font-size="353px"
       font-weight="400"
       id="tspan330"><tspan
         class="TextPosition"
         x="878.22638"
         y="8078.0732"
         id="tspan328"><tspan
           fill="#000000"
           stroke="none"
           id="tspan326">LR+Zstd</tspan></tspan></tspan></text></g><g
   inkscape:groupmode="layer"
   id="layer4"
   inkscape:label="ZZ"
   style="display:none"><path
     fill="none"
     stroke="#b3b3b3"
     stroke-linejoin="round"
     d="m 2276,9263 h 150"
     id="path39867" /><path
     fill="none"
     stroke="#b3b3b3"
     stroke-linejoin="round"
     d="m 2276,9263 h 150"
     id="path39869" /><path
     fill="#2453ff"
     stroke="none"
     d="m 2426,9047 v -431 h 535 v 431 z"
     id="path39955" /><path
     fill="#ff8e77"
     stroke="none"
     d="m 2961,9047 v -431 h 2482 v 431 z"
     id="path39981" /><path
     fill="#ff6a52"
     stroke="none"
     d="m 5443,9047 v -431 h 72 v 431 z"
     id="path40007" /><path
     fill="#fe7c3f"
     stroke="none"
     d="m 5515,9047 v -431 h 71 v 431 z"
     id="path40033" /><path
     fill="#90ebcd"
     stroke="none"
     d="m 5586,9047 v -431 h 789 v 431 z"
     id="path40059" /><path
     fill="#30ba78"
     stroke="none"
     d="m 6375,9047 v -431 h 152 v 431 z"
     id="path40077" /><path
     fill="#7ad4aa"
     stroke="none"
     d="m 6527,9047 v -431 h 507 v 431 z"
     id="path40095" /><path
     fill="#192072"
     stroke="none"
     d="m 7034,9047 v -431 h 15 v 431 z"
     id="path40121" /><text
     class="TextShape"
     id="text324"
     x="-754.02972"
     y="30.225082"
     style="display:inline"><tspan
       class="TextParagraph"
       font-family="'Liberation Sans', sans-serif"
       font-size="353px"
       font-weight="400"
       id="tspan322"><tspan
         class="TextPosition"
         x="257.97021"
         y="8982.2246"
         id="tspan320"><tspan
           fill="#000000"
           stroke="none"
           id="tspan318">L+Zstd+Zstd</tspan></tspan></tspan></text></g><g
   inkscape:groupmode="layer"
   id="layer5"
   inkscape:label="SR"
   style="display:none"><text
     class="TextShape"
     id="text316"
     x="-1016.6301"
     style="display:inline"
     y="-9.8930349"><tspan
       class="TextParagraph"
       font-family="'Liberation Sans', sans-serif"
       font-size="353px"
       font-weight="400"
       id="tspan314"><tspan
         class="TextPosition"
         x="-57.630123"
         y="9805.1074"
         id="tspan312"><tspan
           fill="#000000"
           stroke="none"
           id="tspan310">LRZ+Scriptlets</tspan></tspan></tspan></text><path
     fill="none"
     stroke="#b3b3b3"
     stroke-linejoin="round"
     d="m 2276,10126 h 150"
     id="path39863" /><path
     fill="none"
     stroke="#b3b3b3"
     stroke-linejoin="round"
     d="m 2276,10126 h 150"
     id="path39865" /><path
     fill="#2453ff"
     stroke="none"
     d="m 2426,9910 v -431 h 541 v 431 z"
     id="path39957" /><path
     fill="#ff8e77"
     stroke="none"
     d="m 2967,9910 v -431 h 2478 v 431 z"
     id="path39983" /><path
     fill="#ff6a52"
     stroke="none"
     d="m 5445,9910 v -431 h 78 v 431 z"
     id="path40009" /><path
     fill="#fe7c3f"
     stroke="none"
     d="m 5523,9910 v -431 h 71 v 431 z"
     id="path40035" /><path
     fill="#7ad4aa"
     stroke="none"
     d="m 5594,9910 v -431 h 1380 v 431 z"
     id="path40097" /><path
     fill="#192072"
     stroke="none"
     d="m 6974,9910 v -431 h 14 v 431 z"
     id="path40123" /></g><g
   inkscape:groupmode="layer"
   id="layer6"
   inkscape:label="SRT"
   style="display:none"><text
     class="TextShape"
     id="text308"
     x="-1295.1819"
     style="display:inline"
     y="16.14216"><tspan
       class="TextParagraph"
       font-family="'Liberation Sans', sans-serif"
       font-size="353px"
       font-weight="400"
       id="tspan306"><tspan
         class="TextPosition"
         x="-548.18182"
         y="10693.143"
         id="tspan304"><tspan
           fill="#000000"
           stroke="none"
           id="tspan302">LRZS + Posttrans</tspan></tspan></tspan></text><path
     fill="rgb(36,83,255)"
     stroke="none"
     d="M 2426,10773 L 2426,10342 2959,10342 2959,10773 2426,10773 Z"
     id="path39959" /><path
     fill="rgb(255,142,119)"
     stroke="none"
     d="M 2959,10773 L 2959,10342 5436,10342 5436,10773 2959,10773 Z"
     id="path39985" /><path
     fill="rgb(255,106,82)"
     stroke="none"
     d="M 5436,10773 L 5436,10342 5514,10342 5514,10773 5436,10773 Z"
     id="path40011" /><path
     fill="rgb(254,124,63)"
     stroke="none"
     d="M 5514,10773 L 5514,10342 5585,10342 5585,10773 5514,10773 Z"
     id="path40037" /><path
     fill="rgb(122,212,170)"
     stroke="none"
     d="M 5585,10773 L 5585,10342 6960,10342 6960,10773 5585,10773 Z"
     id="path40099" /><path
     fill="rgb(25,32,114)"
     stroke="none"
     d="M 6960,10773 L 6960,10342 6975,10342 6975,10773 6960,10773 Z"
     id="path40125" /></g><g
   inkscape:groupmode="layer"
   id="layer7"
   inkscape:label="SRTI"
   style="display:none"><path
     fill="none"
     stroke="#b3b3b3"
     stroke-linejoin="round"
     d="m 2276,11852 h 150"
     id="path39857" /><path
     fill="#2453ff"
     stroke="none"
     d="m 2426,11636 v -431 h 535 v 431 z"
     id="path39961" /><path
     fill="#ff8e77"
     stroke="none"
     d="m 2961,11636 v -431 h 577 v 431 z"
     id="path39987" /><path
     fill="#ff6a52"
     stroke="none"
     d="m 3538,11636 v -431 h 79 v 431 z"
     id="path40013" /><path
     fill="#fe7c3f"
     stroke="none"
     d="m 3617,11636 v -431 h 70 v 431 z"
     id="path40039" /><path
     fill="#7ad4aa"
     stroke="none"
     d="m 3687,11636 v -431 h 1394 v 431 z"
     id="path40101" /><path
     fill="#192072"
     stroke="none"
     d="m 5081,11636 v -431 h 15 v 431 z"
     id="path40127" /><text
     class="TextShape"
     id="text300"
     x="-310.55002"
     y="-35.439377"
     style="display:inline"><tspan
       class="TextParagraph"
       font-family="'Liberation Sans', sans-serif"
       font-size="353px"
       font-weight="400"
       id="tspan298"><tspan
         class="TextPosition"
         x="330.45004"
         y="11504.561"
         id="tspan296"><tspan
           fill="#000000"
           stroke="none"
           id="tspan294">LRZST+Incr</tspan></tspan></tspan></text></g><g
   inkscape:groupmode="layer"
   id="layer8"
   inkscape:label="SRTIP"
   style="display:none"><path
     fill="#2453ff"
     stroke="none"
     d="m 2426,12499 v -432 h 537 v 432 z"
     id="path39963" /><path
     fill="#ff8e77"
     stroke="none"
     d="m 2963,12499 v -432 h 287 v 432 z"
     id="path39989" /><path
     fill="#ff6a52"
     stroke="none"
     d="m 3250,12499 v -432 h 80 v 432 z"
     id="path40015" /><path
     fill="#fe7c3f"
     stroke="none"
     d="m 3330,12499 v -432 h 28 v 432 z"
     id="path40041" /><path
     fill="#7ad4aa"
     stroke="none"
     d="m 3358,12499 v -432 h 813 v 432 z"
     id="path40103" /><path
     fill="#192072"
     stroke="none"
     d="m 4171,12499 v -432 h 4 v 432 z"
     id="path40129" /><text
     class="TextShape"
     id="text292"
     x="-685.30768"
     y="33.550056"
     style="display:inline"><tspan
       class="TextParagraph"
       font-family="'Liberation Sans', sans-serif"
       font-size="353px"
       font-weight="400"
       id="tspan290"><tspan
         class="TextPosition"
         x="-282.3078"
         y="12436.55"
         id="tspan288"><tspan
           fill="#000000"
           stroke="none"
           id="tspan286">LRZSTI+Parallel</tspan></tspan></tspan></text></g><text
   class="TextShape"
   id="text356"
   x="-254.4321"
   y="33.04681"><tspan
     class="TextParagraph"
     font-family="'Liberation Sans', sans-serif"
     font-size="353px"
     font-weight="400"
     id="tspan354"><tspan
       class="TextPosition"
       x="625.56787"
       y="5533.0464"
       id="tspan352"><tspan
         fill="#000000"
         stroke="none"
         id="tspan350">Leap 15.3</tspan></tspan></tspan></text><text
   class="TextShape"
   id="text364"
   x="-810.83356"
   y="79.413757"><tspan
     class="TextParagraph"
     font-family="'Liberation Sans', sans-serif"
     font-size="353px"
     font-weight="400"
     id="tspan362"><tspan
       class="TextPosition"
       x="69.166527"
       y="4716.4136"
       id="tspan360"><tspan
         fill="#000000"
         stroke="none"
         id="tspan358">SLED 15 SP3</tspan></tspan></tspan></text><text
   class="TextShape"
   id="text372"
   x="-764.46674"
   y="79.413757"><tspan
     class="TextParagraph"
     font-family="'Liberation Sans', sans-serif"
     font-size="353px"
     font-weight="400"
     id="tspan370"><tspan
       class="TextPosition"
       x="115.53329"
       y="3854.4136"
       id="tspan368"><tspan
         fill="#000000"
         stroke="none"
         id="tspan366">SLES 15 SP3</tspan></tspan></tspan></text><text
   class="TextShape"
   id="text380"
   x="-439.8992"
   y="56.23016"><tspan
     class="TextParagraph"
     font-family="'Liberation Sans', sans-serif"
     font-size="353px"
     font-weight="400"
     id="tspan378"><tspan
       class="TextPosition"
       x="69.100792"
       y="2968.2302"
       id="tspan376"><tspan
         fill="#000000"
         stroke="none"
         id="tspan374">SLED 15 SP2</tspan></tspan></tspan></text><text
   class="TextShape"
   id="text388"
   x="-370.34903"
   y="56.23016"><tspan
     class="TextParagraph"
     font-family="'Liberation Sans', sans-serif"
     font-size="353px"
     font-weight="400"
     id="tspan386"><tspan
       class="TextPosition"
       x="138.65097"
       y="2105.2302"
       id="tspan384"><tspan
         fill="#000000"
         stroke="none"
         id="tspan382">SLES 15 SP2</tspan></tspan></tspan></text></svg>
